<svg xmlns="http://www.w3.org/2000/svg" xmlns:xlink="http://www.w3.org/1999/xlink" width="1920" zoomAndPan="magnify" viewBox="0 0 1440 809.999993" height="1080" preserveAspectRatio="xMidYMid meet" version="1.0"><defs><clipPath id="db1ea424bd"><path d="M 697 81 L 743 81 L 743 168 L 697 168 Z M 697 81 " clip-rule="nonzero"/></clipPath><clipPath id="7c5bed0506"><path d="M 697 642 L 743 642 L 743 729 L 697 729 Z M 697 642 " clip-rule="nonzero"/></clipPath><clipPath id="0a293f0893"><path d="M 957 382 L 1044 382 L 1044 428 L 957 428 Z M 957 382 " clip-rule="nonzero"/></clipPath><clipPath id="f9a3c60aeb"><path d="M 396 382 L 483 382 L 483 428 L 396 428 Z M 396 382 " clip-rule="nonzero"/></clipPath></defs><path fill="#fafafa" d="M 720 182.863281 C 597.511719 182.863281 497.863281 282.515625 497.863281 405 C 497.863281 527.488281 597.515625 627.136719 720 627.136719 C 842.488281 627.136719 942.136719 527.488281 942.136719 405 C 942.136719 282.511719 842.488281 182.863281 720 182.863281 Z M 531.539062 405 C 531.539062 301.078125 616.078125 216.539062 720 216.539062 L 720 593.460938 C 616.078125 593.460938 531.539062 508.914062 531.539062 405 Z M 531.539062 405 " fill-opacity="1" fill-rule="nonzero"/><g clip-path="url(#db1ea424bd)"><path fill="#fafafa" d="M 742.875 144.847656 C 742.875 157.476562 732.636719 167.722656 720 167.722656 C 707.363281 167.722656 697.125 157.476562 697.125 144.847656 L 697.125 103.824219 C 697.125 91.191406 707.363281 80.949219 720 80.949219 C 732.636719 80.949219 742.875 91.191406 742.875 103.824219 Z M 742.875 144.847656 " fill-opacity="1" fill-rule="nonzero"/></g><g clip-path="url(#7c5bed0506)"><path fill="#fafafa" d="M 742.875 706.171875 C 742.875 718.800781 732.636719 729.046875 720 729.046875 C 707.363281 729.046875 697.125 718.800781 697.125 706.171875 L 697.125 665.144531 C 697.125 652.507812 707.363281 642.269531 720 642.269531 C 732.636719 642.269531 742.875 652.507812 742.875 665.144531 Z M 742.875 706.171875 " fill-opacity="1" fill-rule="nonzero"/></g><g clip-path="url(#0a293f0893)"><path fill="#fafafa" d="M 980.152344 427.875 C 967.515625 427.875 957.277344 417.636719 957.277344 405 C 957.277344 392.363281 967.515625 382.125 980.152344 382.125 L 1021.175781 382.125 C 1033.808594 382.125 1044.050781 392.363281 1044.050781 405 C 1044.050781 417.636719 1033.808594 427.875 1021.175781 427.875 Z M 980.152344 427.875 " fill-opacity="1" fill-rule="nonzero"/></g><g clip-path="url(#f9a3c60aeb)"><path fill="#fafafa" d="M 418.828125 427.875 C 406.199219 427.875 395.953125 417.636719 395.953125 405 C 395.953125 392.363281 406.199219 382.125 418.828125 382.125 L 459.855469 382.125 C 472.492188 382.125 482.730469 392.363281 482.730469 405 C 482.730469 417.636719 472.492188 427.875 459.855469 427.875 Z M 418.828125 427.875 " fill-opacity="1" fill-rule="nonzero"/></g><path fill="#fafafa" d="M 552.21875 204.871094 C 561.148438 213.800781 561.148438 228.285156 552.21875 237.21875 C 543.285156 246.148438 528.800781 246.148438 519.871094 237.21875 L 490.859375 208.207031 C 481.925781 199.273438 481.925781 184.792969 490.859375 175.859375 C 499.792969 166.925781 514.273438 166.925781 523.207031 175.859375 Z M 552.21875 204.871094 " fill-opacity="1" fill-rule="nonzero"/><path fill="#fafafa" d="M 949.140625 601.785156 C 958.066406 610.710938 958.066406 625.199219 949.140625 634.132812 C 940.207031 643.058594 925.71875 643.058594 916.792969 634.132812 L 887.78125 605.121094 C 878.859375 596.191406 878.859375 581.707031 887.78125 572.773438 C 896.714844 563.851562 911.199219 563.851562 920.128906 572.773438 Z M 949.140625 601.785156 " fill-opacity="1" fill-rule="nonzero"/><path fill="#fafafa" d="M 920.128906 237.21875 C 911.199219 246.148438 896.714844 246.148438 887.78125 237.21875 C 878.855469 228.285156 878.855469 213.800781 887.78125 204.871094 L 916.792969 175.859375 C 925.71875 166.933594 940.207031 166.925781 949.140625 175.859375 C 958.066406 184.792969 958.066406 199.28125 949.140625 208.207031 Z M 920.128906 237.21875 " fill-opacity="1" fill-rule="nonzero"/><path fill="#fafafa" d="M 523.214844 634.140625 C 514.289062 643.066406 499.800781 643.066406 490.867188 634.140625 C 481.933594 625.207031 481.941406 610.71875 490.867188 601.792969 L 519.878906 572.78125 C 528.808594 563.859375 543.292969 563.859375 552.226562 572.78125 C 561.15625 581.714844 561.15625 596.199219 552.226562 605.128906 Z M 523.214844 634.140625 " fill-opacity="1" fill-rule="nonzero"/></svg>