<svg xmlns="http://www.w3.org/2000/svg" xmlns:xlink="http://www.w3.org/1999/xlink" width="1920" zoomAndPan="magnify" viewBox="0 0 1440 809.999993" height="1080" preserveAspectRatio="xMidYMid meet" version="1.0"><path fill="#fafafa" d="M 877.390625 215.332031 C 881.761719 210.957031 888.9375 210.957031 893.308594 215.332031 L 909.121094 231.140625 C 917.574219 240.039062 908.214844 248.308594 901.71875 254.460938 C 901.71875 254.460938 914.59375 268.933594 915.847656 272.066406 L 925.042969 262.871094 C 938.160156 249.753906 938.160156 228.449219 925.042969 215.332031 L 909.121094 199.410156 C 896 186.289062 874.699219 186.289062 861.578125 199.410156 L 852.386719 208.714844 C 852.386719 208.714844 864.621094 217.359375 869.988281 222.730469 Z M 877.390625 215.332031 " fill-opacity="1" fill-rule="nonzero"/><path fill="#fafafa" d="M 897.683594 270.269531 L 854.179688 226.765625 C 843.304688 216.003906 824.804688 216.117188 814.375 226.65625 C 805.898438 235.324219 753.628906 286.816406 749.121094 292.582031 L 748.785156 292.246094 L 697.769531 343.375 C 738.492188 351.695312 772.859375 385.960938 781.074219 426.792969 L 897.796875 310.074219 C 908.652344 299.730469 908.664062 280.632812 897.683594 270.269531 Z M 811.011719 356.941406 L 784.773438 383.179688 C 782.644531 385.421875 779.730469 386.542969 776.8125 386.542969 C 767.285156 386.878906 761.789062 373.984375 768.964844 367.371094 L 795.203125 341.132812 C 805.628906 330.707031 821.328125 346.515625 811.011719 356.941406 Z M 850.703125 317.25 C 845.882812 320.949219 833.886719 337.542969 826.933594 336.421875 C 817.289062 336.761719 811.796875 323.976562 818.972656 317.25 L 834.894531 301.441406 C 845.210938 291.125 861.019531 306.933594 850.703125 317.25 Z M 872.792969 294.9375 C 870.410156 296.4375 867.140625 297.261719 864.382812 296.621094 C 862.3125 296.15625 860.046875 295.058594 858.664062 293.480469 C 849.808594 285.296875 860.011719 270.496094 870.886719 275.203125 C 879.066406 278.410156 880.183594 290.226562 872.792969 294.9375 Z M 872.792969 294.9375 " fill-opacity="1" fill-rule="nonzero"/><path fill="#fafafa" d="M 590.222656 456.453125 C 562.394531 457.027344 584.957031 516.0625 598.90625 525.546875 C 608.546875 539.714844 667.921875 562.011719 668.359375 534.101562 C 667.691406 527.949219 662.195312 523.519531 655.996094 524.171875 C 640.699219 525.828125 625.632812 520.566406 614.761719 509.695312 C 603.976562 498.90625 598.675781 483.980469 600.242188 468.75 C 600.867188 462.585938 596.386719 457.082031 590.222656 456.453125 Z M 590.222656 456.453125 " fill-opacity="1" fill-rule="nonzero"/><path fill="#fafafa" d="M 650.28125 629.214844 C 660.375 628.933594 678.324219 630.71875 677.304688 615.933594 C 676.636719 609.777344 670.953125 605.34375 664.953125 605.996094 C 583.324219 617 507.898438 541.90625 518.351562 460.289062 C 519.808594 445.792969 497.660156 443.367188 496.035156 458.003906 C 484.726562 546.765625 561.144531 631.3125 650.28125 629.214844 Z M 650.28125 629.214844 " fill-opacity="1" fill-rule="nonzero"/><path fill="#fafafa" d="M 673.886719 687.886719 C 541.109375 705.164062 419.9375 584.671875 436.425781 451.824219 C 437.921875 437.347656 415.609375 434.871094 414.109375 449.539062 C 396.207031 596.875 529.589844 729.007812 676.320312 710.179688 C 690.792969 708.492188 688.589844 686.425781 673.886719 687.886719 Z M 673.886719 687.886719 " fill-opacity="1" fill-rule="nonzero"/><path fill="#fafafa" d="M 772.121094 452.765625 C 771.785156 445.144531 770.328125 437.519531 768.308594 430.230469 L 768.199219 430.34375 C 758.554688 396.144531 730.859375 368.449219 696.664062 358.804688 L 696.777344 358.695312 C 687.824219 356.265625 678.308594 354.570312 668.855469 354.882812 L 668.632812 355.105469 C 636.535156 352.566406 582.304688 377.007812 609.65625 414.980469 C 609.648438 415.902344 630.777344 436.566406 631.96875 437.851562 C 609.632812 472.960938 654.117188 517.359375 689.152344 495.039062 C 690.59375 496.40625 710.964844 517.144531 712.023438 517.460938 C 713.480469 518.46875 714.941406 519.59375 716.398438 520.378906 C 716.507812 520.488281 716.621094 520.488281 716.734375 520.601562 C 735.332031 531.078125 755.394531 519.726562 763.152344 500.753906 C 769.171875 487.6875 772.5 472.59375 771.898438 458.371094 L 772.121094 458.148438 C 772.121094 456.355469 772.234375 454.558594 772.121094 452.765625 Z M 671.882812 478.105469 C 658.941406 480.8125 646.144531 468.289062 648.898438 455.234375 L 649.011719 454.898438 L 672.109375 477.996094 Z M 745.101562 485.957031 C 742.148438 494.769531 736.066406 508.386719 725.03125 499.519531 L 654.390625 428.882812 L 627.484375 401.976562 C 623.445312 398.273438 624.230469 391.4375 628.378906 388.070312 C 674.433594 358.867188 740.492188 390.601562 748.464844 443.910156 C 748.6875 444.582031 748.800781 445.253906 748.914062 446.039062 C 748.914062 446.375 749.023438 446.824219 749.136719 447.273438 C 751.042969 459.71875 750.035156 472.835938 745.101562 485.957031 Z M 745.101562 485.957031 " fill-opacity="1" fill-rule="nonzero"/><path fill="#fafafa" d="M 1031.445312 486.109375 L 929.527344 384.1875 C 917.527344 372.191406 896.5625 372.191406 884.566406 384.1875 L 870.660156 398.089844 L 850.144531 377.574219 L 834.222656 393.382812 C 838.230469 397.417969 850.628906 409.710938 854.851562 413.902344 L 840.835938 427.804688 C 828.503906 440.25 828.503906 460.433594 840.835938 472.765625 C 859.804688 491.828125 922.726562 554.597656 942.757812 574.6875 C 954.578125 586.992188 975.980469 587.078125 987.71875 574.6875 L 1031.445312 531.070312 C 1043.78125 519.183594 1043.78125 497.882812 1031.445312 486.109375 Z M 978.523438 464.917969 L 958.003906 485.433594 L 930.199219 457.628906 L 950.71875 437.109375 Z M 900.375 399.996094 C 903.960938 396.410156 910.242188 396.410156 913.71875 399.996094 L 934.90625 421.1875 L 914.277344 441.707031 L 886.472656 413.902344 Z M 856.757812 456.957031 C 847.226562 446.839844 864.578125 437.429688 870.660156 429.820312 L 898.46875 457.628906 L 877.949219 478.148438 Z M 893.757812 493.957031 L 914.277344 473.4375 L 942.195312 501.246094 L 921.566406 521.875 Z M 971.910156 558.875 C 968.320312 562.351562 962.265625 562.464844 958.679688 558.875 L 937.488281 537.683594 L 958.003906 517.167969 L 985.8125 544.972656 Z M 1015.523438 515.148438 L 1001.621094 529.050781 L 973.816406 501.246094 L 994.445312 480.726562 L 1015.523438 501.917969 C 1019.222656 505.394531 1019.222656 511.671875 1015.523438 515.148438 Z M 1015.523438 515.148438 " fill-opacity="1" fill-rule="nonzero"/><path fill="#fafafa" d="M 726.359375 253.789062 L 740.261719 239.886719 C 752.707031 227.550781 752.707031 207.371094 740.261719 194.925781 L 711.222656 165.773438 L 638.34375 93.003906 C 626.34375 81.007812 605.378906 81.007812 593.378906 93.003906 L 549.765625 136.730469 C 537.429688 148.503906 537.429688 169.808594 549.765625 181.695312 L 651.683594 283.613281 C 663.457031 295.945312 684.761719 295.945312 696.644531 283.613281 L 710.550781 269.710938 L 731.066406 290.230469 L 746.878906 274.308594 C 742.070312 269.5 731.253906 258.683594 726.359375 253.789062 Z M 687.339844 173.734375 L 666.820312 194.25 L 639.015625 166.445312 L 659.535156 145.925781 Z M 615.917969 106.121094 C 621.277344 104.609375 637.480469 124.898438 643.722656 130.117188 L 623.207031 150.636719 L 595.398438 122.828125 C 599.546875 119.578125 609.863281 105.335938 615.917969 106.121094 Z M 565.574219 165.773438 C 563.78125 164.089844 562.882812 161.734375 562.882812 159.15625 C 561.988281 153.214844 576.339844 142.675781 579.476562 138.636719 L 607.285156 166.445312 L 586.765625 186.964844 Z M 602.6875 202.886719 L 623.207031 182.367188 L 651.011719 210.171875 L 630.492188 230.691406 Z M 680.726562 267.691406 C 677.25 271.28125 671.082031 271.28125 667.496094 267.691406 L 646.304688 246.5 L 666.820312 225.980469 L 694.628906 253.789062 Z M 710.550781 237.980469 L 682.742188 210.171875 L 703.261719 189.542969 L 724.453125 210.734375 C 728.039062 214.433594 728.039062 220.375 724.453125 224.078125 Z M 710.550781 237.980469 " fill-opacity="1" fill-rule="nonzero"/></svg>