<svg xmlns="http://www.w3.org/2000/svg" xmlns:xlink="http://www.w3.org/1999/xlink" width="1920" zoomAndPan="magnify" viewBox="0 0 1440 809.999993" height="1080" preserveAspectRatio="xMidYMid meet" version="1.0"><defs><clipPath id="66239031f6"><path d="M 456.75 394 L 983.25 394 L 983.25 416 L 456.75 416 Z M 456.75 394 " clip-rule="nonzero"/></clipPath></defs><path fill="#fafafa" d="M 728.101562 581.175781 C 724.050781 575.605469 715.445312 575.605469 711.394531 581.175781 L 681.019531 624.710938 C 677.980469 629.269531 678.992188 635.851562 683.550781 638.886719 C 688.105469 641.925781 694.6875 640.914062 697.726562 636.355469 L 709.875 619.144531 L 709.875 718.875 C 709.875 724.445312 714.429688 729 720 729 C 725.570312 729 730.125 724.445312 730.125 718.875 L 730.125 619.648438 C 730.125 619.648438 742.273438 636.863281 742.273438 636.863281 C 745.3125 640.914062 751.894531 642.429688 756.449219 639.394531 C 761.007812 636.355469 762.019531 629.773438 758.980469 625.21875 C 758.476562 625.21875 728.605469 581.679688 728.101562 581.175781 Z M 728.101562 581.175781 " fill-opacity="1" fill-rule="nonzero"/><g clip-path="url(#66239031f6)"><path fill="#fafafa" d="M 973.125 394.875 L 466.875 394.875 C 461.304688 394.875 456.75 399.429688 456.75 405 C 456.75 410.570312 461.304688 415.125 466.875 415.125 L 973.125 415.125 C 978.695312 415.125 983.25 410.570312 983.25 405 C 983.25 399.429688 978.695312 394.875 973.125 394.875 Z M 973.125 394.875 " fill-opacity="1" fill-rule="nonzero"/></g><path fill="#fafafa" d="M 973.125 517.894531 C 828.84375 433.855469 699.242188 438.414062 615.207031 457.144531 C 524.585938 477.394531 468.394531 516.882812 465.863281 518.398438 C 461.304688 521.4375 460.292969 528.019531 463.332031 532.574219 C 466.367188 537.132812 472.949219 538.144531 477.507812 535.105469 C 478.011719 534.601562 533.195312 496.125 620.269531 476.886719 C 700.257812 459.167969 824.792969 455.117188 962.492188 535.613281 C 967.050781 538.144531 973.632812 536.625 976.164062 532.070312 C 979.707031 526.5 978.1875 520.425781 973.125 517.894531 Z M 973.125 517.894531 " fill-opacity="1" fill-rule="nonzero"/><path fill="#fafafa" d="M 973.125 588.769531 C 828.84375 504.730469 699.242188 509.289062 615.207031 528.019531 C 524.585938 548.269531 468.394531 587.757812 465.863281 589.273438 C 461.304688 592.3125 460.292969 598.894531 463.332031 603.449219 C 466.367188 608.007812 472.949219 609.019531 477.507812 605.980469 C 478.011719 605.476562 533.195312 567 620.269531 547.761719 C 700.257812 530.042969 824.792969 525.992188 962.492188 606.488281 C 967.050781 609.019531 973.632812 607.5 976.164062 602.945312 C 979.707031 597.375 978.1875 591.300781 973.125 588.769531 Z M 973.125 588.769531 " fill-opacity="1" fill-rule="nonzero"/><path fill="#fafafa" d="M 711.898438 228.824219 C 715.949219 234.394531 724.554688 234.394531 728.605469 228.824219 C 728.605469 228.824219 758.980469 185.289062 758.980469 185.289062 C 762.019531 180.730469 761.007812 174.148438 756.449219 171.113281 C 751.894531 168.074219 745.3125 169.59375 742.273438 173.644531 C 742.273438 173.644531 730.125 190.855469 730.125 190.855469 L 730.125 91.125 C 730.125 85.554688 725.570312 81 720 81 C 714.429688 81 709.875 85.554688 709.875 91.125 L 709.875 190.351562 L 697.726562 173.136719 C 694.6875 168.582031 688.105469 167.570312 683.550781 170.605469 C 678.992188 173.644531 677.980469 180.226562 681.019531 184.78125 Z M 711.898438 228.824219 " fill-opacity="1" fill-rule="nonzero"/><path fill="#fafafa" d="M 465.863281 291.601562 C 468.394531 293.117188 524.082031 333.113281 615.207031 352.855469 C 698.738281 371.585938 828.84375 376.144531 973.125 292.105469 C 978.1875 289.070312 979.707031 282.992188 976.667969 278.4375 C 974.136719 273.882812 967.554688 271.855469 963 274.894531 C 824.792969 355.386719 700.761719 351.335938 620.773438 333.617188 C 533.699219 314.382812 478.519531 275.398438 478.011719 275.398438 C 473.457031 272.363281 467.382812 273.375 463.835938 277.929688 C 460.292969 281.980469 461.304688 288.5625 465.863281 291.601562 Z M 465.863281 291.601562 " fill-opacity="1" fill-rule="nonzero"/><path fill="#fafafa" d="M 465.863281 220.726562 C 468.394531 222.242188 524.082031 262.238281 615.207031 281.980469 C 698.738281 300.710938 828.84375 305.269531 973.125 221.230469 C 978.1875 218.195312 979.707031 212.117188 976.667969 207.5625 C 974.136719 203.007812 967.554688 200.980469 963 204.019531 C 824.792969 284.511719 700.761719 280.460938 620.773438 262.742188 C 533.699219 243.507812 478.519531 204.523438 478.011719 204.523438 C 473.457031 201.488281 467.382812 202.5 463.835938 207.054688 C 460.292969 211.105469 461.304688 217.6875 465.863281 220.726562 Z M 465.863281 220.726562 " fill-opacity="1" fill-rule="nonzero"/></svg>