<svg xmlns="http://www.w3.org/2000/svg" xmlns:xlink="http://www.w3.org/1999/xlink" width="1920" zoomAndPan="magnify" viewBox="0 0 1440 809.999993" height="1080" preserveAspectRatio="xMidYMid meet" version="1.0"><defs><clipPath id="16e180df84"><path d="M 495 81 L 946.605469 81 L 946.605469 729 L 495 729 Z M 495 81 " clip-rule="nonzero"/></clipPath></defs><g clip-path="url(#16e180df84)"><path fill="#fafafa" d="M 931.898438 81.046875 C 939.882812 81.046875 946.363281 87.523438 946.363281 95.507812 C 946.363281 103.496094 939.882812 109.972656 931.898438 109.972656 L 796.140625 109.972656 L 796.140625 158.425781 L 890.238281 158.425781 C 898.226562 158.425781 904.703125 164.90625 904.703125 172.890625 C 904.703125 180.875 898.226562 187.351562 890.238281 187.351562 L 796.140625 187.351562 L 796.140625 227.871094 L 890.238281 227.871094 C 898.226562 227.871094 904.703125 234.347656 904.703125 242.332031 C 904.703125 250.316406 898.226562 256.796875 890.238281 256.796875 L 796.140625 256.796875 L 796.140625 293.34375 L 929.914062 293.34375 C 937.898438 293.34375 944.378906 299.820312 944.378906 307.804688 C 944.378906 315.792969 937.898438 322.269531 929.914062 322.269531 L 796.140625 322.269531 L 796.140625 360.800781 L 890.238281 360.800781 C 898.226562 360.800781 904.703125 367.277344 904.703125 375.265625 C 904.703125 383.25 898.226562 389.726562 890.238281 389.726562 L 796.140625 389.726562 L 796.140625 426.257812 L 890.238281 426.257812 C 898.226562 426.257812 904.703125 432.734375 904.703125 440.722656 C 904.703125 448.707031 898.226562 455.183594 890.238281 455.183594 L 796.140625 455.183594 L 796.140625 493.714844 L 929.914062 493.714844 C 937.898438 493.714844 944.378906 500.195312 944.378906 508.179688 C 944.378906 516.164062 937.898438 522.640625 929.914062 522.640625 L 796.140625 522.640625 L 796.140625 563.160156 L 890.238281 563.160156 C 898.226562 563.160156 904.703125 569.636719 904.703125 577.621094 C 904.703125 585.609375 898.226562 592.085938 890.238281 592.085938 L 796.140625 592.085938 L 796.140625 628.632812 L 890.238281 628.632812 C 898.226562 628.632812 904.703125 635.109375 904.703125 643.09375 C 904.703125 651.082031 898.226562 657.558594 890.238281 657.558594 L 796.140625 657.558594 L 796.140625 700.042969 L 931.898438 700.042969 C 939.882812 700.042969 946.363281 706.519531 946.363281 714.507812 C 946.363281 722.492188 939.882812 728.96875 931.898438 728.96875 L 794.585938 728.96875 C 779.472656 728.96875 767.199219 716.714844 767.199219 701.582031 L 767.199219 109.402344 C 767.199219 93.746094 779.882812 81.046875 795.539062 81.046875 Z M 691.566406 615.882812 C 684.324219 608.992188 672.878906 609.277344 665.988281 616.519531 L 614.675781 670.449219 L 614.675781 142.820312 L 663.480469 192.6875 C 670.464844 199.816406 681.914062 199.941406 689.058594 192.957031 C 696.199219 185.972656 696.328125 174.523438 689.328125 167.382812 L 623.265625 99.890625 C 609.375 85.683594 586.625 85.332031 572.273438 99.082031 L 501.066406 167.382812 C 493.859375 174.304688 493.621094 185.734375 500.527344 192.941406 C 507.449219 200.148438 518.894531 200.386719 526.105469 193.480469 L 578.496094 143.234375 L 578.496094 664.164062 L 528.613281 617.644531 C 521.308594 610.835938 509.863281 611.230469 503.050781 618.535156 C 496.242188 625.835938 496.636719 637.285156 503.941406 644.09375 L 576.113281 711.394531 C 590.640625 724.9375 613.359375 724.269531 627.042969 709.871094 L 692.167969 641.429688 C 699.074219 634.21875 698.789062 622.773438 691.566406 615.882812 Z M 691.566406 615.882812 " fill-opacity="1" fill-rule="nonzero"/></g></svg>