<svg xmlns="http://www.w3.org/2000/svg" xmlns:xlink="http://www.w3.org/1999/xlink" width="1920" zoomAndPan="magnify" viewBox="0 0 1440 809.999993" height="1080" preserveAspectRatio="xMidYMid meet" version="1.0"><defs><clipPath id="de35b2624c"><path d="M 576.5625 81 L 803 81 L 803 713.25 L 576.5625 713.25 Z M 576.5625 81 " clip-rule="nonzero"/></clipPath><clipPath id="bffeef2684"><path d="M 770 471 L 863.8125 471 L 863.8125 495 L 770 495 Z M 770 471 " clip-rule="nonzero"/></clipPath><clipPath id="72bd1a6bf9"><path d="M 770 367 L 863.8125 367 L 863.8125 390 L 770 390 Z M 770 367 " clip-rule="nonzero"/></clipPath><clipPath id="d1c05d74d3"><path d="M 770 262 L 863.8125 262 L 863.8125 286 L 770 286 Z M 770 262 " clip-rule="nonzero"/></clipPath><clipPath id="3a310f2c31"><path d="M 770 158 L 863.8125 158 L 863.8125 182 L 770 182 Z M 770 158 " clip-rule="nonzero"/></clipPath></defs><path fill="#fafafa" d="M 700.777344 536.203125 C 700.777344 535.824219 700.777344 535.570312 700.777344 535.191406 L 700.777344 145.359375 C 700.777344 139.164062 695.722656 134.105469 689.523438 134.105469 C 683.328125 134.105469 678.273438 139.164062 678.273438 145.359375 L 678.273438 535.191406 C 678.273438 535.570312 678.273438 535.824219 678.273438 536.203125 C 647.671875 541.515625 624.40625 568.195312 624.40625 600.3125 C 624.40625 636.222656 653.488281 665.429688 689.523438 665.429688 C 725.4375 665.429688 754.644531 636.347656 754.644531 600.3125 C 754.644531 568.195312 731.378906 541.515625 700.777344 536.203125 Z M 700.777344 536.203125 " fill-opacity="1" fill-rule="nonzero"/><g clip-path="url(#de35b2624c)"><path fill="#fafafa" d="M 753.886719 507.5 L 753.886719 145.359375 C 753.886719 109.828125 725.054688 81 689.523438 81 C 654.121094 81 625.164062 109.828125 625.164062 145.359375 L 625.164062 507.5 C 611.382812 517.109375 599.75 529.753906 591.402344 544.296875 C 581.792969 561.238281 576.609375 580.585938 576.609375 600.3125 C 576.609375 662.523438 627.3125 713.226562 689.523438 713.226562 C 751.738281 713.226562 802.441406 662.523438 802.441406 600.3125 C 802.441406 580.585938 797.257812 561.238281 787.648438 544.296875 C 779.300781 529.628906 767.667969 517.109375 753.886719 507.5 Z M 689.523438 690.59375 C 639.707031 690.59375 599.117188 650.003906 599.117188 600.183594 C 599.117188 568.445312 615.300781 539.742188 642.359375 523.054688 C 645.648438 521.03125 647.796875 517.363281 647.796875 513.441406 L 647.796875 145.359375 C 647.796875 122.347656 666.511719 103.632812 689.523438 103.632812 C 712.539062 103.632812 731.253906 122.347656 731.253906 145.359375 L 731.253906 513.570312 C 731.253906 517.488281 733.277344 521.15625 736.691406 523.179688 C 763.75 539.742188 779.933594 568.574219 779.933594 600.3125 C 779.933594 650.128906 739.34375 690.59375 689.523438 690.59375 Z M 689.523438 690.59375 " fill-opacity="1" fill-rule="nonzero"/></g><g clip-path="url(#bffeef2684)"><path fill="#fafafa" d="M 852.132812 471.589844 L 782.082031 471.589844 C 775.886719 471.589844 770.828125 476.648438 770.828125 482.84375 C 770.828125 489.039062 775.886719 494.097656 782.082031 494.097656 L 852.132812 494.097656 C 858.328125 494.097656 863.386719 489.039062 863.386719 482.84375 C 863.386719 476.648438 858.328125 471.589844 852.132812 471.589844 Z M 852.132812 471.589844 " fill-opacity="1" fill-rule="nonzero"/></g><path fill="#fafafa" d="M 782.082031 442 L 823.808594 442 C 830.007812 442 835.0625 436.945312 835.0625 430.746094 C 835.0625 424.550781 830.007812 419.492188 823.808594 419.492188 L 782.082031 419.492188 C 775.886719 419.492188 770.828125 424.550781 770.828125 430.746094 C 770.828125 436.945312 775.886719 442 782.082031 442 Z M 782.082031 442 " fill-opacity="1" fill-rule="nonzero"/><g clip-path="url(#72bd1a6bf9)"><path fill="#fafafa" d="M 852.132812 367.273438 L 782.082031 367.273438 C 775.886719 367.273438 770.828125 372.328125 770.828125 378.527344 C 770.828125 384.722656 775.886719 389.78125 782.082031 389.78125 L 852.132812 389.78125 C 858.328125 389.78125 863.386719 384.722656 863.386719 378.527344 C 863.386719 372.328125 858.328125 367.273438 852.132812 367.273438 Z M 852.132812 367.273438 " fill-opacity="1" fill-rule="nonzero"/></g><path fill="#fafafa" d="M 782.082031 337.683594 L 823.808594 337.683594 C 830.007812 337.683594 835.0625 332.625 835.0625 326.429688 C 835.0625 320.234375 830.007812 315.175781 823.808594 315.175781 L 782.082031 315.175781 C 775.886719 315.175781 770.828125 320.234375 770.828125 326.429688 C 770.828125 332.625 775.886719 337.683594 782.082031 337.683594 Z M 782.082031 337.683594 " fill-opacity="1" fill-rule="nonzero"/><g clip-path="url(#d1c05d74d3)"><path fill="#fafafa" d="M 852.132812 262.953125 L 782.082031 262.953125 C 775.886719 262.953125 770.828125 268.011719 770.828125 274.207031 C 770.828125 280.402344 775.886719 285.460938 782.082031 285.460938 L 852.132812 285.460938 C 858.328125 285.460938 863.386719 280.402344 863.386719 274.207031 C 863.386719 268.011719 858.328125 262.953125 852.132812 262.953125 Z M 852.132812 262.953125 " fill-opacity="1" fill-rule="nonzero"/></g><path fill="#fafafa" d="M 782.082031 233.367188 L 823.808594 233.367188 C 830.007812 233.367188 835.0625 228.308594 835.0625 222.113281 C 835.0625 215.917969 830.007812 210.859375 823.808594 210.859375 L 782.082031 210.859375 C 775.886719 210.859375 770.828125 215.917969 770.828125 222.113281 C 770.828125 228.308594 775.886719 233.367188 782.082031 233.367188 Z M 782.082031 233.367188 " fill-opacity="1" fill-rule="nonzero"/><g clip-path="url(#3a310f2c31)"><path fill="#fafafa" d="M 782.082031 181.269531 L 852.132812 181.269531 C 858.328125 181.269531 863.386719 176.214844 863.386719 170.015625 C 863.386719 163.820312 858.328125 158.765625 852.132812 158.765625 L 782.082031 158.765625 C 775.886719 158.765625 770.828125 163.820312 770.828125 170.015625 C 770.828125 176.214844 775.886719 181.269531 782.082031 181.269531 Z M 782.082031 181.269531 " fill-opacity="1" fill-rule="nonzero"/></g></svg>